<svg width="24" height="24" viewBox="0 0 24 24" fill="none" xmlns="http://www.w3.org/2000/svg">
<path d="M7.01697 9.10585C5.86688 9.10585 4.79168 8.35375 4 7.56581" stroke="#2F2F2F" stroke-width="1.06984" stroke-miterlimit="10" stroke-linecap="round" stroke-linejoin="round"/>
<path d="M8.42386 6.56121C8.21524 6.1429 7.93173 5.7615 7.68567 5.3555" stroke="#2F2F2F" stroke-width="1.06984" stroke-miterlimit="10" stroke-linecap="round" stroke-linejoin="round"/>
<path d="M11.3015 15.335C11.3015 13.0589 8.16149 12.0164 9.22598 9.17325C10.6275 5.4411 18.6834 2.70712 19.8763 7.7664C20.2133 9.2032 19.8923 11.6178 18.5336 12.5218C17.3301 13.3264 15.7895 13.7147 15.7895 15.4687" stroke="#2F2F2F" stroke-width="1.06984" stroke-miterlimit="10" stroke-linecap="round" stroke-linejoin="round"/>
<path d="M11.8365 16.2727C12.8422 15.7699 14.5807 16.0047 15.6559 16.0047" stroke="#2F2F2F" stroke-width="1.06984" stroke-miterlimit="10" stroke-linecap="round" stroke-linejoin="round"/>
<path d="M12.6442 17.8801C13.3717 17.5143 14.5271 17.5453 15.3188 17.5453" stroke="#2F2F2F" stroke-width="1.06984" stroke-miterlimit="10" stroke-linecap="round" stroke-linejoin="round"/>
<path d="M13.8478 19.1859C13.8746 19.18 13.7569 19.2228 13.7836 19.2196C13.8746 19.2078 14.142 19.1372 14.0511 19.1527C13.8264 19.1902 13.6017 19.2453 13.8478 19.1859Z" stroke="#2F2F2F" stroke-width="1.06984" stroke-miterlimit="10" stroke-linecap="round" stroke-linejoin="round"/>
<path d="M7.01681 12.3207C7.80315 11.9757 7.081 12.4058 6.94727 12.455C6.84028 12.4951 6.51398 12.5769 6.61562 12.5219C6.90983 12.3566 6.80284 12.4149 7.01681 12.3207Z" stroke="#2F2F2F" stroke-width="1.06984" stroke-miterlimit="10" stroke-linecap="round" stroke-linejoin="round"/>
<path d="M15.2547 7.09668C13.2916 6.11563 11.0609 9.12991 11.3712 10.9813" stroke="#2F2F2F" stroke-width="1.06984" stroke-miterlimit="10" stroke-linecap="round" stroke-linejoin="round"/>
</svg>
