<svg width="24" height="24" viewBox="0 0 24 24" fill="none" xmlns="http://www.w3.org/2000/svg">
<path d="M6.67841 17.5621C10.4637 17.5621 14.3423 17.2454 18.0885 17.2454" stroke="#2F2F2F" stroke-width="0.952506" stroke-miterlimit="10" stroke-linecap="round" stroke-linejoin="round"/>
<path d="M6.80522 17.5621C5.78652 17.0525 5.01165 16.1491 4.20631 15.3437C3.62576 14.7627 4.40347 12.9368 4.90354 12.5543C5.82557 11.8495 7.78154 11.8342 8.77024 12.4276C8.90025 12.5053 10.1719 13.4273 10.038 13.6954C9.92658 13.9188 9.60463 13.3968 9.59415 13.3783C9.11171 12.5096 8.62736 11.5209 8.51687 10.526C8.2616 8.23092 9.83038 6.25542 12.1302 6.02539C15.0482 5.73344 15.553 8.00708 15.553 10.3993C15.553 10.5836 15.2992 11.92 15.4263 12.0471C15.4606 12.0819 15.9164 11.4313 16.5675 11.2865C17.3256 11.118 18.3296 11.1332 18.9759 11.6037C20.2798 12.552 20.3098 15.0237 19.2297 16.1043" stroke="#2F2F2F" stroke-width="0.952506" stroke-miterlimit="10" stroke-linecap="round" stroke-linejoin="round"/>
</svg>
